<svg xmlns="http://www.w3.org/2000/svg" viewBox="0 0 1000 900" width="1000" height="900" fill="none"><rect x="279.5" y="5.8" width="71.2" height="71.2" fill="none" stroke="#2BA8DB" stroke-width="1.6" opacity="0.68"></rect><rect x="468.2" y="6.0" width="72.3" height="72.3" fill="rgba(255,255,255,0.07)"></rect><rect x="295.5" y="102.2" width="59.3" height="59.3" fill="rgba(255,255,255,0.07)"></rect><rect x="548.0" y="93.9" width="86.3" height="86.3" fill="rgba(43,168,219,0.10)"></rect><rect x="105.7" y="190.6" width="70.9" height="70.9" fill="none" stroke="#2BA8DB" stroke-width="1.6" opacity="0.89"></rect><rect x="201.3" y="197.4" width="59.2" height="59.2" fill="none" stroke="#2BA8DB" stroke-width="1.6" opacity="0.80"></rect><rect x="282.7" y="205.9" width="63.5" height="63.5" fill="none" stroke="#2BA8DB" stroke-width="1.6" opacity="0.85"></rect><rect x="386.2" y="198.6" width="59.3" height="59.3" fill="rgba(255,255,255,0.07)"></rect><rect x="654.9" y="201.5" width="53.9" height="53.9" fill="rgba(255,255,255,0.07)"></rect><rect x="13.6" y="290.6" width="62.6" height="62.6" fill="none" stroke="#2BA8DB" stroke-width="1.6" opacity="0.83"></rect><rect x="100.4" y="283.9" width="66.8" height="66.8" fill="rgba(43,168,219,0.10)"></rect><rect x="289.3" y="288.6" width="82.2" height="82.2" fill="rgba(255,255,255,0.07)"></rect><rect x="369.9" y="283.3" width="71.0" height="71.0" fill="none" stroke="#2BA8DB" stroke-width="1.6" opacity="0.55"></rect><rect x="472.3" y="279.9" width="75.8" height="75.8" fill="rgba(43,168,219,0.10)"></rect><rect x="560.9" y="278.5" width="72.2" height="72.2" fill="rgba(255,255,255,0.07)"></rect><rect x="653.3" y="279.1" width="72.2" height="72.2" fill="rgba(255,255,255,0.07)"></rect><rect x="194.7" y="382.5" width="76.3" height="76.3" fill="none" stroke="#2BA8DB" stroke-width="1.6" opacity="0.82"></rect><rect x="655.6" y="367.0" width="81.2" height="81.2" fill="none" stroke="#2BA8DB" stroke-width="1.6" opacity="0.47"></rect><rect x="844.9" y="382.7" width="53.0" height="53.0" fill="none" stroke="#2BA8DB" stroke-width="1.6" opacity="0.81"></rect><rect x="293.4" y="472.1" width="53.8" height="53.8" fill="none" stroke="#2BA8DB" stroke-width="1.6" opacity="0.64"></rect><rect x="476.7" y="469.5" width="67.2" height="67.2" fill="rgba(255,255,255,0.07)"></rect><rect x="565.2" y="468.2" width="60.5" height="60.5" fill="rgba(43,168,219,0.10)"></rect><rect x="114.0" y="571.1" width="51.7" height="51.7" fill="none" stroke="#2BA8DB" stroke-width="1.6" opacity="0.69"></rect><rect x="193.6" y="556.1" width="70.0" height="70.0" fill="rgba(255,255,255,0.07)"></rect><rect x="283.2" y="555.3" width="84.0" height="84.0" fill="rgba(255,255,255,0.07)"></rect><rect x="383.2" y="568.7" width="68.9" height="68.9" fill="rgba(255,255,255,0.07)"></rect><rect x="474.9" y="559.9" width="74.0" height="74.0" fill="none" stroke="#2BA8DB" stroke-width="1.6" opacity="0.89"></rect><rect x="558.7" y="565.2" width="74.6" height="74.6" fill="rgba(255,255,255,0.07)"></rect><rect x="652.5" y="548.4" width="83.1" height="83.1" fill="none" stroke="#2BA8DB" stroke-width="1.6" opacity="0.66"></rect><rect x="186.4" y="655.8" width="74.8" height="74.8" fill="none" stroke="#2BA8DB" stroke-width="1.6" opacity="0.54"></rect><rect x="282.3" y="667.2" width="62.2" height="62.2" fill="rgba(43,168,219,0.10)"></rect><rect x="388.2" y="656.5" width="57.4" height="57.4" fill="rgba(43,168,219,0.10)"></rect><rect x="467.8" y="659.6" width="72.7" height="72.7" fill="none" stroke="#2BA8DB" stroke-width="1.6" opacity="0.60"></rect><rect x="557.5" y="640.8" width="83.5" height="83.5" fill="none" stroke="#2BA8DB" stroke-width="1.6" opacity="0.67"></rect><rect x="376.3" y="738.8" width="69.4" height="69.4" fill="none" stroke="#2BA8DB" stroke-width="1.6" opacity="0.78"></rect><rect x="477.7" y="739.4" width="71.0" height="71.0" fill="none" stroke="#2BA8DB" stroke-width="1.6" opacity="0.55"></rect></svg>
